HIERARCHY
ROOT Hips
{
  OFFSET 5.72205e-005 65.662 3.42586
  CHANNELS 6 Xposition Yposition Zposition Zrotation Xrotation Yrotation
  JOINT Chest
  {
    OFFSET 0 8.7983 -4.7612
    CHANNELS 3 Zrotation Xrotation Yrotation
    JOINT Chest2
    {
      OFFSET 0 8.0291 0.4195
      CHANNELS 3 Zrotation Xrotation Yrotation
      JOINT Chest3
      {
        OFFSET 0 9.9351 -2.2114
        CHANNELS 3 Zrotation Xrotation Yrotation
        JOINT Neck
        {
          OFFSET 0 22.3885 -0.4656
          CHANNELS 3 Zrotation Xrotation Yrotation
          JOINT Head
          {
            OFFSET -0.0001 12.643 3.4389
            CHANNELS 3 Zrotation Xrotation Yrotation
            End Site
            {
              OFFSET 0.0001 17.6655 0.5274
            }
          }
        }
        JOINT LeftCollar
        {
          OFFSET 2.2603 21.606 7.4023
          CHANNELS 3 Zrotation Xrotation Yrotation
          JOINT LeftShoulder
          {
            OFFSET 13.5163 -1.1332 -5.0146
            CHANNELS 3 Zrotation Xrotation Yrotation
            JOINT LeftElbow
            {
              OFFSET -0.0995 -28.05 -0.2431
              CHANNELS 3 Zrotation Xrotation Yrotation
              JOINT LeftWrist
              {
                OFFSET 0.0679 -23.3996 -0.1402
                CHANNELS 3 Zrotation Xrotation Yrotation
                JOINT LeftFinger1
                {
                  OFFSET 0.7932 -9.069 2.5189
                  CHANNELS 3 Zrotation Xrotation Yrotation
                  JOINT LeftFinger11
                  {
                    OFFSET -0.8272 -3.3923 0.5977
                    CHANNELS 3 Zrotation Xrotation Yrotation
                    JOINT LeftFinger12
                    {
                      OFFSET -0.5649 -2.3158 0.4082
                      CHANNELS 3 Zrotation Xrotation Yrotation
                      End Site
                      {
                        OFFSET -0.4919 -1.6479 0.2673
                      }
                    }
                  }
                }
                JOINT LeftFinger2
                {
                  OFFSET 0.9159 -9.2044 0.2193
                  CHANNELS 3 Zrotation Xrotation Yrotation
                  JOINT LeftFinger21
                  {
                    OFFSET 0.0117 -4.1944 -0.0248
                    CHANNELS 3 Zrotation Xrotation Yrotation
                    JOINT LeftFinger22
                    {
                      OFFSET 0.0071 -2.3249 -0.0142
                      CHANNELS 3 Zrotation Xrotation Yrotation
                      End Site
                      {
                        OFFSET -0.1475 -2.0882 0.0028
                      }
                    }
                  }
                }
                JOINT LeftFinger3
                {
                  OFFSET 0.6113 -8.7231 -2.0637
                  CHANNELS 3 Zrotation Xrotation Yrotation
                  JOINT LeftFinger31
                  {
                    OFFSET -0.1927 -3.8059 -0.2383
                    CHANNELS 3 Zrotation Xrotation Yrotation
                    JOINT LeftFinger32
                    {
                      OFFSET -0.1091 -2.1688 -0.1362
                      CHANNELS 3 Zrotation Xrotation Yrotation
                      End Site
                      {
                        OFFSET -0.2358 -1.9176 -0.0906
                      }
                    }
                  }
                }
                JOINT LeftFinger4
                {
                  OFFSET -0.6151 -8.0947 -3.5641
                  CHANNELS 3 Zrotation Xrotation Yrotation
                  JOINT LeftFinger41
                  {
                    OFFSET -0.4882 -2.341 -0.6462
                    CHANNELS 3 Zrotation Xrotation Yrotation
                    JOINT LeftFinger42
                    {
                      OFFSET -0.3575 -1.7167 -0.4742
                      CHANNELS 3 Zrotation Xrotation Yrotation
                      End Site
                      {
                        OFFSET -0.4187 -1.5237 -0.3496
                      }
                    }
                  }
                }
                JOINT LeftFinger0
                {
                  OFFSET -1.42 -1.8761 1.4223
                  CHANNELS 3 Zrotation Xrotation Yrotation
                  JOINT LeftFinger01
                  {
                    OFFSET -1.1471 -3.4929 2.6334
                    CHANNELS 3 Zrotation Xrotation Yrotation
                    JOINT LeftFinger02
                    {
                      OFFSET -0.823 -2.3 1.6571
                      CHANNELS 3 Zrotation Xrotation Yrotation
                      End Site
                      {
                        OFFSET -0.5822 -1.6914 1.1582
                      }
                    }
                  }
                }
              }
            }
          }
        }
        JOINT RightCollar
        {
          OFFSET -2.2603 21.606 7.4023
          CHANNELS 3 Zrotation Xrotation Yrotation
          JOINT RightShoulder
          {
            OFFSET -13.5187 -1.1334 -5.0155
            CHANNELS 3 Zrotation Xrotation Yrotation
            JOINT RightElbow
            {
              OFFSET 0.0994 -28.0499 -0.2431
              CHANNELS 3 Zrotation Xrotation Yrotation
              JOINT RightWrist
              {
                OFFSET -0.0679 -23.3996 -0.1402
                CHANNELS 3 Zrotation Xrotation Yrotation
                JOINT RightFinger1
                {
                  OFFSET -0.7932 -9.0691 2.5189
                  CHANNELS 3 Zrotation Xrotation Yrotation
                  JOINT RightFinger11
                  {
                    OFFSET 0.8272 -3.3923 0.5977
                    CHANNELS 3 Zrotation Xrotation Yrotation
                    JOINT RightFinger12
                    {
                      OFFSET 0.565 -2.3158 0.4082
                      CHANNELS 3 Zrotation Xrotation Yrotation
                      End Site
                      {
                        OFFSET 0.4919 -1.6479 0.2673
                      }
                    }
                  }
                }
                JOINT RightFinger2
                {
                  OFFSET -0.916 -9.2044 0.2193
                  CHANNELS 3 Zrotation Xrotation Yrotation
                  JOINT RightFinger21
                  {
                    OFFSET -0.0117 -4.1944 -0.0248
                    CHANNELS 3 Zrotation Xrotation Yrotation
                    JOINT RightFinger22
                    {
                      OFFSET -0.0071 -2.3249 -0.0142
                      CHANNELS 3 Zrotation Xrotation Yrotation
                      End Site
                      {
                        OFFSET 0.1475 -2.0882 0.0028
                      }
                    }
                  }
                }
                JOINT RightFinger3
                {
                  OFFSET -0.6113 -8.7231 -2.0637
                  CHANNELS 3 Zrotation Xrotation Yrotation
                  JOINT RightFinger31
                  {
                    OFFSET 0.1927 -3.8059 -0.2383
                    CHANNELS 3 Zrotation Xrotation Yrotation
                    JOINT RightFinger32
                    {
                      OFFSET 0.1091 -2.1688 -0.1362
                      CHANNELS 3 Zrotation Xrotation Yrotation
                      End Site
                      {
                        OFFSET 0.2358 -1.9176 -0.0906
                      }
                    }
                  }
                }
                JOINT RightFinger4
                {
                  OFFSET 0.6151 -8.0947 -3.564
                  CHANNELS 3 Zrotation Xrotation Yrotation
                  JOINT RightFinger41
                  {
                    OFFSET 0.4882 -2.341 -0.6462
                    CHANNELS 3 Zrotation Xrotation Yrotation
                    JOINT RightFinger42
                    {
                      OFFSET 0.3574 -1.7166 -0.4742
                      CHANNELS 3 Zrotation Xrotation Yrotation
                      End Site
                      {
                        OFFSET 0.4187 -1.5237 -0.3496
                      }
                    }
                  }
                }
                JOINT RightFinger0
                {
                  OFFSET 1.4199 -1.8761 1.4221
                  CHANNELS 3 Zrotation Xrotation Yrotation
                  JOINT RightFinger01
                  {
                    OFFSET 1.1472 -3.4929 2.6336
                    CHANNELS 3 Zrotation Xrotation Yrotation
                    JOINT RightFinger02
                    {
                      OFFSET 0.8229 -2.3 1.6571
                      CHANNELS 3 Zrotation Xrotation Yrotation
                      End Site
                      {
                        OFFSET 0.5822 -1.6914 1.1582
                      }
                    }
                  }
                }
              }
            }
          }
        }
      }
    }
  }
  JOINT RightHip
  {
    OFFSET -9.412 3.9771 -0.7758
    CHANNELS 3 Zrotation Xrotation Yrotation
    JOINT RightKnee
    {
      OFFSET -0.7531 -40.938 0
      CHANNELS 3 Zrotation Xrotation Yrotation
      JOINT RightAnkle
      {
        OFFSET 0 -40.1986 0
        CHANNELS 3 Zrotation Xrotation Yrotation
        JOINT RightToe
        {
          OFFSET 0 -4.4182 9.239
          CHANNELS 3 Zrotation Xrotation Yrotation
          End Site
          {
            OFFSET 0 0 6.1981
          }
        }
      }
    }
  }
  JOINT LeftHip
  {
    OFFSET 9.4119 3.9773 -0.7758
    CHANNELS 3 Zrotation Xrotation Yrotation
    JOINT LeftKnee
    {
      OFFSET 0.7532 -40.9383 0
      CHANNELS 3 Zrotation Xrotation Yrotation
      JOINT LeftAnkle
      {
        OFFSET 0 -40.1986 0
        CHANNELS 3 Zrotation Xrotation Yrotation
        JOINT LeftToe
        {
          OFFSET 0 -4.4182 9.239
          CHANNELS 3 Zrotation Xrotation Yrotation
          End Site
          {
            OFFSET 0 0 6.1981
          }
        }
      }
    }
  }
}
MOTION
Frames:	4
Frame Time:	0.0333333
0.00103132 1.89824 9.65953 179.996 -89.9981 179.996 -0.0982371 5.4792 -0.148175 -0.183431 10.9587 -0.288859 -0.183431 10.9587 -0.28886 -10.3944 8.2857 0.935605 7.66791 -10.628 7.63484 -9.17726 3.25885 -12.4558 27.0975 -18.0852 16.8045 -29.4301 -58.2076 -11.9948 -12.6545 -1.55926 -22.1718 1.98626e-031 -3.18055e-015 3.57812e-015 9.93923e-016 0 7.55382e-015 -6.75868e-015 0 3.18055e-015 1.98626e-031 -3.18055e-015 3.57812e-015 -0.0128255 0.00231953 8.48221e-005 4.52556e-007 6.36111e-015 -7.22713e-007 1.98626e-031 -3.18055e-015 3.57812e-015 -0.0160654 0.00300716 0.000855416 -3.97569e-015 3.18055e-015 1.59028e-015 1.98626e-031 -3.18055e-015 3.57812e-015 -0.0126053 0.00312804 0.00282171 5.56599e-006 4.75673e-007 2.28008e-006 1.98626e-031 -3.18055e-015 3.57812e-015 9.93923e-016 0 7.55382e-015 -6.75868e-015 0 3.18055e-015 9.83369 4.32396 8.07266 -25.6885 -19.4145 -11.9651 24.6008 -57.7663 7.22853 11.4986 -2.2264 24.0719 4.90984e-007 3.86074e-007 -6.9368e-007 -7.67122e-006 2.90891e-006 -5.34163e-006 1.59028e-015 9.54166e-015 7.95139e-016 4.90984e-007 3.86074e-007 -6.9368e-007 0.0129772 0.00232941 -8.64987e-005 3.97569e-016 9.54166e-015 7.95139e-016 4.90984e-007 3.86074e-007 -6.9368e-007 0.016308 0.00303481 -0.000882751 -1.19271e-015 -6.36111e-015 2.38542e-015 4.90984e-007 3.86074e-007 -6.9368e-007 0.0145396 0.00367443 -0.00325466 4.37326e-015 9.54166e-015 1.59028e-015 4.90984e-007 3.86074e-007 -6.9368e-007 -7.67122e-006 2.90891e-006 -5.34163e-006 1.59028e-015 9.54166e-015 7.95139e-016 5.16332 0.513434 7.45556 -2.56992 14.0721 0.405021 -3.76462 10.1406 -10.4413 -2.39349e-007 3.13647e-005 9.0296e-007 -5.09621 0.764851 -10.5819 1.86713 13.7354 -0.216146 3.50241 10.0113 13.4775 -4.74797e-007 3.95796e-009 3.09003e-008 
0.00103132 1.89824 9.65953 179.997 -89.9981 179.997 -0.0981566 5.43896 -0.148232 -0.183352 10.8782 -0.289024 -0.183353 10.8782 -0.289024 -10.3435 8.33459 0.935427 7.62231 -10.5331 7.5894 -9.16559 3.40715 -12.3442 26.9425 -18.1204 16.7345 -29.4302 -58.2076 -11.9948 -12.5412 -1.16167 -22.1391 -3.40752e-006 -7.72341e-006 -2.13555e-006 -3.97569e-015 3.18055e-015 2.38542e-015 5.1684e-015 1.27222e-014 -7.95139e-015 -3.40752e-006 -7.72341e-006 -2.13555e-006 -0.0128426 0.00233164 8.81952e-005 1.19271e-015 -3.18055e-015 7.95139e-016 -3.40752e-006 -7.72341e-006 -2.13555e-006 -0.0160209 0.00299504 0.000857038 1.14324e-006 4.80752e-006 2.54818e-006 -3.40752e-006 -7.72341e-006 -2.13555e-006 -0.0126316 0.00313392 0.00283496 2.87273e-006 2.09313e-006 2.58807e-006 -3.40752e-006 -7.72341e-006 -2.13555e-006 -3.97569e-015 3.18055e-015 2.38542e-015 5.1684e-015 1.27222e-014 -7.95139e-015 9.74025 4.41786 7.91144 -25.5097 -19.4304 -11.8761 24.8324 -57.8155 7.43136 11.4145 -1.78676 23.9862 -7.95139e-016 0 7.95139e-016 -7.84784e-007 3.03727e-006 -1.51791e-006 1.19271e-015 3.18055e-015 -9.54166e-015 -7.95139e-016 0 7.95139e-016 0.0128986 0.00230057 -8.65952e-005 3.97569e-015 3.18055e-015 -9.54166e-015 -7.95139e-016 0 7.95139e-016 0.0163201 0.00303824 -0.000877075 -4.53694e-006 -3.5621e-006 1.11204e-006 -7.95139e-016 0 7.95139e-016 0.0145615 0.00366879 -0.00327082 1.33757e-005 -9.14082e-006 7.90721e-006 -7.95139e-016 0 7.95139e-016 -7.84784e-007 3.03727e-006 -1.51791e-006 1.19271e-015 3.18055e-015 -9.54166e-015 5.16332 0.513434 7.45556 -2.56992 14.0721 0.405021 -3.76462 10.1406 -10.4413 -2.39349e-007 3.13647e-005 9.0296e-007 -5.09621 0.764851 -10.5819 1.86713 13.7354 -0.216146 3.50241 10.0113 13.4775 -4.74797e-007 3.95796e-009 3.09003e-008 
0.00103132 1.89824 9.65953 179.997 -89.9981 179.997 -0.0980748 5.39878 -0.148288 -0.183271 10.7978 -0.289185 -0.183272 10.7978 -0.289186 -10.2926 8.38351 0.935212 7.57681 -10.4381 7.54403 -9.15421 3.55552 -12.2327 26.7876 -18.1555 16.6644 -29.4303 -58.2075 -11.9946 -12.4282 -0.764041 -22.1072 1.59028e-015 6.36111e-015 -4.77083e-015 1.78906e-015 3.18055e-015 -2.78299e-015 3.57812e-015 9.54166e-015 -5.1684e-015 1.59028e-015 6.36111e-015 -4.77083e-015 -0.0128244 0.00232534 7.87719e-005 1.98785e-016 9.54166e-015 -3.18055e-015 1.59028e-015 6.36111e-015 -4.77083e-015 -0.0160278 0.00298525 0.000854599 1.59028e-015 -9.54166e-015 -4.77083e-015 1.59028e-015 6.36111e-015 -4.77083e-015 -0.0126371 0.00313551 0.00283636 1.19271e-015 3.18055e-015 7.95139e-016 1.59028e-015 6.36111e-015 -4.77083e-015 1.78906e-015 3.18055e-015 -2.78299e-015 3.57812e-015 9.54166e-015 -5.1684e-015 9.64706 4.51208 7.75034 -25.331 -19.4461 -11.7871 25.0647 -57.8643 7.63474 11.3312 -1.34705 23.9012 1.31689e-006 -3.52454e-006 -1.76893e-006 -4.98215e-007 -3.18055e-015 6.8901e-007 3.544e-006 4.1262e-007 2.90704e-007 1.31689e-006 -3.52454e-006 -1.76893e-006 0.0129241 0.00231926 -8.54561e-005 2.4913e-007 -2.89361e-006 -3.44495e-007 1.31689e-006 -3.52454e-006 -1.76893e-006 0.0163026 0.00303511 -0.000874756 1.09444e-005 2.5607e-006 6.00585e-006 1.31689e-006 -3.52454e-006 -1.76893e-006 0.0145993 0.003688 -0.00326909 4.98279e-007 1.27405e-007 -6.88982e-007 1.31689e-006 -3.52454e-006 -1.76893e-006 -4.98215e-007 -3.18055e-015 6.8901e-007 3.544e-006 4.1262e-007 2.90704e-007 5.16332 0.513434 7.45556 -2.56992 14.0721 0.405021 -3.76462 10.1406 -10.4413 -2.39349e-007 3.13647e-005 9.0296e-007 -5.09621 0.764851 -10.5819 1.86713 13.7354 -0.216146 3.50241 10.0113 13.4775 -4.74797e-007 3.95796e-009 3.09003e-008 
0.00103132 1.89824 9.65953 179.996 -89.9981 179.996 -0.0979917 5.35856 -0.148342 -0.183188 10.7173 -0.289345 -0.183189 10.7174 -0.289346 -10.2416 8.43249 0.934959 7.53138 -10.343 7.49874 -9.14312 3.70392 -12.1212 26.6322 -18.1903 16.594 -29.4302 -58.2075 -11.9947 -12.3154 -0.366384 -22.0761 -2.38542e-015 -6.36111e-015 -7.95139e-016 5.96354e-016 6.36111e-015 1.59028e-015 -4.96962e-015 -3.18055e-015 -7.95139e-016 -2.38542e-015 -6.36111e-015 -7.95139e-016 -0.0127838 0.00233028 9.13622e-005 1.39149e-015 3.18055e-015 -3.97569e-015 -2.38542e-015 -6.36111e-015 -7.95139e-016 -0.0160477 0.00300281 0.000857907 4.37326e-015 -3.18055e-015 -3.97569e-016 -2.38542e-015 -6.36111e-015 -7.95139e-016 -0.012575 0.00312529 0.00282458 1.78906e-015 1.59028e-014 -3.57812e-015 -2.38542e-015 -6.36111e-015 -7.95139e-016 5.96354e-016 6.36111e-015 1.59028e-015 -4.96962e-015 -3.18055e-015 -7.95139e-016 9.55413 4.60658 7.58937 -25.1519 -19.4614 -11.6979 25.2973 -57.9126 7.83882 11.2486 -0.907254 23.8168 1.08241e-006 -2.32489e-006 -1.42631e-006 -3.43347e-007 2.05985e-006 -2.16241e-006 -3.97569e-016 -6.36111e-015 7.95139e-016 1.08241e-006 -2.32489e-006 -1.42631e-006 0.0129058 0.00229821 -9.0742e-005 5.56597e-015 -6.36111e-015 -2.38542e-015 1.08241e-006 -2.32489e-006 -1.42631e-006 0.0163225 0.00303437 -0.000870628 -2.38542e-015 -3.18055e-015 -2.38542e-015 1.08241e-006 -2.32489e-006 -1.42631e-006 0.0145816 0.00366632 -0.00326009 2.38542e-015 0 3.18055e-015 1.08241e-006 -2.32489e-006 -1.42631e-006 -3.43347e-007 2.05985e-006 -2.16241e-006 -3.97569e-016 -6.36111e-015 7.95139e-016 5.16334 0.513252 7.45558 -2.56994 14.0724 0.405016 -3.76461 10.1404 -10.4413 1.18638e-006 2.40127e-005 8.2485e-007 -5.09624 0.764626 -10.5819 1.86712 13.7357 -0.216151 3.50241 10.0112 13.4775 -7.57307e-007 -9.11562e-008 -1.47899e-006 
